<?xml version="1.0" standalone="no"?>
<!DOCTYPE svg PUBLIC "-//W3C//DTD SVG 20010904//EN"
 "https://www.w3.org/TR/2001/REC-SVG-20010904/DTD/svg10.dtd">
<svg version="1.0" xmlns="https://www.w3.org/2000/svg"
 width="260.000000pt" height="260.000000pt" viewBox="0 0 260.000000 260.000000"
 preserveAspectRatio="xMidYMid meet">
<metadata>
Created by potrace 1.11, written by Peter Selinger 2001-2013
</metadata>
<g transform="translate(0.000000,260.000000) scale(0.100000,-0.100000)"
fill="#000000" stroke="none">
<path d="M1695 1763 c-78 -9 -289 -56 -370 -82 -329 -106 -656 -313 -942 -596
-143 -142 -265 -288 -322 -388 -33 -58 -36 -67 -22 -67 4 0 25 25 45 56 79
118 317 372 456 485 154 126 330 231 491 292 268 103 503 118 726 46 35 -11
65 -24 67 -27 2 -4 -24 -7 -57 -8 -240 -3 -500 -97 -747 -273 -163 -115 -385
-346 -445 -461 -21 -41 -12 -51 11 -13 10 15 21 30 24 33 3 3 21 25 40 50 69
92 257 267 357 334 197 131 340 180 528 180 100 1 132 -3 193 -23 40 -13 71
-25 69 -27 -1 -2 -32 -6 -67 -9 -193 -17 -405 -121 -570 -278 -91 -87 -193
-217 -171 -217 6 0 16 10 22 22 13 24 56 73 132 150 150 151 338 235 504 226
117 -7 209 -63 272 -167 15 -23 42 -5 35 23 -5 21 -3 23 20 19 32 -6 33 3 4
35 -22 24 -23 24 -2 14 12 -6 24 -18 28 -27 3 -8 14 -15 23 -15 27 0 65 30 59
46 -3 7 6 22 20 33 l25 19 -31 36 -31 35 32 -9 c31 -9 53 -30 64 -61 5 -14 11
-15 40 -6 38 11 68 55 54 78 -10 17 -2 29 19 29 9 0 28 9 41 19 l24 18 -49 53
c-27 30 -41 51 -32 47 47 -17 85 -18 91 -3 10 26 23 23 121 -33 37 -21 39 -21
56 -4 16 17 16 19 -2 46 -11 15 -15 26 -8 25 6 -2 17 12 25 30 l14 33 -52 33
c-71 46 -167 93 -257 128 -67 26 -70 28 -31 23 24 -3 68 -14 99 -25 67 -24 78
-25 85 -6 10 25 -211 99 -363 121 -50 8 -298 13 -345 8z"/>
<path d="M2474 1595 c-4 -9 -5 -17 -3 -19 37 -27 99 -54 105 -45 8 13 -7 28
-59 58 -33 20 -38 21 -43 6z"/>
</g>
</svg>
